Coordinates
version=1
nRows=14
nColumns=63
inDegrees=yes

Units are S.I. units (second, meters, Newtons, ...)
If the header above contains a line with 'inDegrees', this indicates whether rotational values are in degrees (yes) or radians (no).

endheader
time	pelvis_tilt	pelvis_list	pelvis_rotation	pelvis_tx	pelvis_ty	pelvis_tz	hip_flexion_r	hip_adduction_r	hip_rotation_r	knee_angle_r	knee_angle_r_beta	ankle_angle_r	subtalar_angle_r	mtp_angle_r	hip_flexion_l	hip_adduction_l	hip_rotation_l	knee_angle_l	knee_angle_l_beta	ankle_angle_l	subtalar_angle_l	mtp_angle_l	L5_S1_Flex_Ext	L5_S1_Lat_Bending	L5_S1_axial_rotation	L4_L5_Flex_Ext	L4_L5_Lat_Bending	L4_L5_axial_rotation	L3_L4_Flex_Ext	L3_L4_Lat_Bending	L3_L4_axial_rotation	L2_L3_Flex_Ext	L2_L3_Lat_Bending	L2_L3_axial_rotation	L1_L2_Flex_Ext	L1_L2_Lat_Bending	L1_L2_axial_rotation	L1_T12_Flex_Ext	L1_T12_Lat_Bending	L1_T12_axial_rotation	Abs_r3	Abs_r2	Abs_r1	Abs_t1	Abs_t2	neck_flexion	neck_bending	neck_rotation	arm_flex_r	arm_add_r	arm_rot_r	elbow_flex_r	pro_sup_r	wrist_flex_r	wrist_dev_r	arm_flex_l	arm_add_l	arm_rot_l	elbow_flex_l	pro_sup_l	wrist_flex_l	wrist_dev_l
5.061224	9.302898	3.968356	95.576230	0.470008	0.559126	0.683301	3.701576	7.899090	-6.615872	17.612386	0.307394	25.642381	-8.367881	0.000000	1.461214	-6.918587	-1.086361	13.825902	0.241308	31.976248	3.121206	0.000000	-0.034292	-0.095883	1.890728	-0.063684	-0.127525	2.008898	-0.056339	-0.233131	2.008898	-0.039193	-0.233131	1.654387	-0.031844	-0.195525	1.536216	-0.019595	-0.148523	1.418046	-0.244946	-1.084651	10.515662	0.000000	0.000000	5.982696	-0.519134	-11.342607	54.954278	-22.128364	17.230047	105.389882	73.546903	5.556724	9.742666	7.344185	-13.188392	103.732673	7.913694	23.569322	-5.867842	-6.361784
5.081633	9.339071	3.956537	95.944911	0.468936	0.558936	0.683268	3.668148	7.873573	-7.076169	17.521569	0.305809	25.781938	-8.156640	0.000000	1.553285	-6.912737	-0.722716	13.858721	0.241880	32.076449	3.248120	0.000000	-0.035221	-0.090786	1.771721	-0.065410	-0.120745	1.882454	-0.057865	-0.220736	1.882454	-0.040255	-0.220736	1.550256	-0.032707	-0.185130	1.439523	-0.020126	-0.140627	1.328791	-0.251583	-1.026985	9.853781	0.000000	0.000000	6.455403	-0.490563	-10.737614	55.464802	-21.696813	17.758082	104.867058	75.393217	5.405106	9.174294	7.064604	-13.181138	102.407123	7.904191	24.550852	-5.996750	-6.919448
5.102041	9.374738	3.924347	96.332201	0.467903	0.558671	0.683231	3.655865	7.849447	-7.532372	17.436242	0.304320	25.928072	-7.972237	0.000000	1.672673	-6.916893	-0.395488	13.895388	0.242520	32.189372	3.440795	0.000000	-0.034949	-0.086046	1.640526	-0.064903	-0.114442	1.743059	-0.057417	-0.209213	1.743059	-0.039943	-0.209213	1.435460	-0.032453	-0.175466	1.332927	-0.019970	-0.133286	1.230394	-0.249635	-0.973375	9.124112	0.000000	0.000000	6.988511	-0.448512	-10.071590	56.044240	-21.202275	18.346364	104.252228	76.882147	5.573908	8.649328	6.815988	-13.174577	102.232307	7.849574	24.266044	-6.100871	-7.580232
5.122449	9.421110	3.887907	96.779181	0.466802	0.558347	0.683160	3.634900	7.827314	-8.099316	17.332468	0.302509	26.085155	-7.707275	0.000000	1.816458	-6.920960	0.096919	13.949631	0.243467	32.293463	3.490754	0.000000	-0.034838	-0.079969	1.494847	-0.064697	-0.106358	1.588275	-0.057235	-0.194436	1.588275	-0.039816	-0.194436	1.307991	-0.032350	-0.163072	1.214563	-0.019906	-0.123871	1.121135	-0.248841	-0.904620	8.313889	0.000000	0.000000	7.567003	-0.396521	-9.360134	56.661336	-20.705824	19.018698	103.635378	78.427548	5.739655	8.116127	6.552412	-13.158884	102.128170	7.778066	23.886642	-6.179250	-8.167460
5.142857	9.467256	3.843090	97.240715	0.465738	0.557998	0.683081	3.625789	7.804336	-8.690368	17.241049	0.300913	26.223381	-7.458448	0.000000	1.978026	-6.928487	0.599963	14.016666	0.244637	32.387369	3.546628	0.000000	-0.033909	-0.075070	1.345801	-0.062973	-0.099843	1.429914	-0.055710	-0.182524	1.429914	-0.038755	-0.182524	1.177576	-0.031488	-0.153082	1.093464	-0.019376	-0.116283	1.009351	-0.242210	-0.849203	7.484944	0.000000	0.000000	8.138368	-0.314621	-8.691481	57.278405	-20.169983	19.705127	102.988994	79.543141	6.091630	7.683464	6.295455	-13.150068	102.047355	7.720786	23.418683	-6.223042	-8.558274
5.163265	9.518301	3.812298	97.714004	0.464677	0.557668	0.682942	3.586840	7.788756	-9.316916	17.130615	0.298986	26.333995	-7.175932	0.000000	2.120080	-6.940571	1.159571	14.077449	0.245698	32.450932	3.538266	0.000000	-0.034023	-0.070445	1.197723	-0.063184	-0.093692	1.272580	-0.055897	-0.171280	1.272580	-0.038885	-0.171280	1.048007	-0.031594	-0.143652	0.973150	-0.019441	-0.109119	0.898292	-0.243024	-0.796889	6.661374	0.000000	0.000000	8.677572	-0.221379	-8.105985	57.869368	-19.637239	20.425022	102.384315	80.534256	6.317487	7.337026	6.019258	-13.122529	101.978747	7.611427	22.999173	-6.260422	-8.906696
5.183673	9.568042	3.795578	98.138621	0.463686	0.557388	0.682787	3.539240	7.772087	-9.945193	17.039873	0.297402	26.426254	-6.878426	0.000000	2.232009	-6.953764	1.683203	14.130107	0.246617	32.477219	3.511192	0.000000	-0.035142	-0.066809	1.067453	-0.065262	-0.088855	1.134169	-0.057735	-0.162438	1.134169	-0.040164	-0.162438	0.934021	-0.032633	-0.136236	0.867306	-0.020080	-0.103486	0.800590	-0.251015	-0.755752	5.936853	0.000000	0.000000	9.153677	-0.069545	-7.641691	58.409321	-19.107950	21.103872	101.818618	81.283184	6.612406	7.133634	5.750976	-13.093467	101.244842	7.545029	23.340667	-6.416621	-9.124531
5.204082	9.622395	3.789954	98.555947	0.462711	0.557152	0.682584	3.477369	7.766478	-10.564664	16.947614	0.295792	26.489937	-6.599575	0.000000	2.331866	-6.970691	2.247572	14.187844	0.247625	32.461563	3.408162	0.000000	-0.036667	-0.063621	0.948794	-0.068095	-0.084616	1.008094	-0.060241	-0.154688	1.008094	-0.041907	-0.154688	0.830195	-0.034049	-0.129736	0.770895	-0.020952	-0.098549	0.711595	-0.261912	-0.719693	5.276907	0.000000	0.000000	9.558319	0.080462	-7.385989	58.897393	-18.611803	21.795711	101.356619	82.150060	6.626893	7.025934	5.495145	-13.043702	100.941668	7.401825	23.404902	-6.501897	-9.339410
5.224490	9.686421	3.799758	98.927162	0.461770	0.556979	0.682287	3.388896	7.777368	-11.163855	16.842176	0.293951	26.535134	-6.314709	0.000000	2.396781	-6.995171	2.817757	14.231775	0.248391	32.399385	3.205401	0.000000	-0.038188	-0.059707	0.853212	-0.070918	-0.079410	0.906537	-0.062738	-0.145172	0.906537	-0.043645	-0.145172	0.746560	-0.035461	-0.121755	0.693234	-0.021820	-0.092486	0.639909	-0.272770	-0.675418	4.745307	0.000000	0.000000	9.872503	0.240052	-7.341793	59.324412	-18.180584	22.498132	101.000828	82.897694	6.414510	7.027748	5.255365	-12.972567	101.040382	7.199954	23.205692	-6.567240	-9.549833
5.244898	9.754533	3.824436	99.265495	0.460857	0.556854	0.681905	3.273802	7.796998	-11.745675	16.722105	0.291856	26.576651	-5.996576	0.000000	2.423834	-7.024330	3.376414	14.247394	0.248664	32.292482	2.922689	0.000000	-0.040205	-0.054443	0.767715	-0.074664	-0.072409	0.815698	-0.066052	-0.132372	0.815698	-0.045950	-0.132372	0.671751	-0.037334	-0.111019	0.623769	-0.022973	-0.084332	0.575787	-0.287177	-0.615866	4.269803	0.000000	0.000000	10.135792	0.381193	-7.370770	59.750841	-17.761443	23.280344	100.660388	83.700842	5.984620	6.940593	4.996812	-12.887831	101.484091	6.941249	22.690933	-6.643774	-9.827973
5.265306	9.833625	3.854554	99.527326	0.460041	0.556780	0.681451	3.150847	7.833796	-12.256965	16.601014	0.289742	26.610708	-5.674799	0.000000	2.418341	-7.067269	3.873417	14.239573	0.248527	32.151579	2.560417	0.000000	-0.040901	-0.048345	0.710504	-0.075957	-0.064298	0.754910	-0.067196	-0.117545	0.754910	-0.046746	-0.117545	0.621691	-0.037980	-0.098584	0.577284	-0.023371	-0.074886	0.532878	-0.292150	-0.546884	3.951608	0.000000	0.000000	10.341533	0.508157	-7.617920	60.122821	-17.410178	24.066771	100.391906	84.437018	5.259565	6.905033	4.762113	-12.801934	102.279006	6.644174	21.988955	-6.730308	-10.101119
5.285714	9.918109	3.906375	99.771306	0.459227	0.556751	0.680947	2.997688	7.881746	-12.733301	16.465655	0.287380	26.633131	-5.358556	0.000000	2.374427	-7.121900	4.326387	14.210101	0.248013	31.979557	2.159423	0.000000	-0.042961	-0.039735	0.655328	-0.079783	-0.052848	0.696286	-0.070580	-0.096612	0.696286	-0.049100	-0.096612	0.573412	-0.039893	-0.081028	0.532454	-0.024548	-0.061549	0.491496	-0.306865	-0.449490	3.644740	0.000000	0.000000	10.497795	0.594448	-7.829051	60.501068	-17.037471	24.922396	100.081628	85.181717	4.307956	6.793172	4.499249	-12.710159	103.293093	6.300764	20.982283	-6.781552	-10.405097
5.306122	10.006415	3.981676	99.970368	0.458451	0.556776	0.680402	2.818893	7.940874	-13.133457	16.329548	0.285004	26.642293	-5.068657	0.000000	2.285055	-7.184264	4.731236	14.164369	0.247215	31.771921	1.686504	0.000000	-0.046024	-0.029208	0.609585	-0.085471	-0.038846	0.647684	-0.075612	-0.071016	0.647684	-0.052601	-0.071016	0.533387	-0.042738	-0.059560	0.495288	-0.026298	-0.045243	0.457189	-0.328743	-0.330403	3.390328	0.000000	0.000000	10.600536	0.634191	-8.043861	60.846746	-16.642463	25.775104	99.719504	85.725077	3.313425	6.648569	4.221565	-12.625583	104.449534	5.936112	19.765847	-6.786294	-10.709884
5.326531	10.096704	4.081640	100.124905	0.457710	0.556860	0.679835	2.613045	8.014792	-13.445934	16.187930	0.282533	26.625411	-4.833148	0.000000	2.148621	-7.254382	5.092361	14.103894	0.246159	31.530183	1.155086	0.000000	-0.048918	-0.017654	0.574693	-0.090846	-0.023480	0.610611	-0.080368	-0.042924	0.610611	-0.055909	-0.042924	0.502856	-0.045426	-0.036000	0.466938	-0.027952	-0.027346	0.431020	-0.349418	-0.199708	3.196268	0.000000	0.000000	10.622692	0.651619	-8.289604	61.109881	-16.197109	26.473918	99.278561	86.895547	2.406202	6.357490	3.930992	-12.553062	105.659292	5.563269	18.387271	-6.709794	-10.978352
